<?xml version="1.0" encoding="UTF-8"?>
<svg id="Camada_1" data-name="Camada 1" xmlns="http://www.w3.org/2000/svg" viewBox="0 0 712.92 712.92">
  <defs>
    <style>
      .cls-1 {
        fill: #0a0a3a;
        stroke: #000;
        stroke-miterlimit: 10;
      }

      .cls-2 {
        fill: #f9f3dd;
      }
    </style>
  </defs>
  <path class="cls-2" d="M665.83,16.5c-64.86-59.03-255.95,45.34-426.82,233.09C68.16,437.34-17.78,637.41,47.09,696.42c64.86,59.03,255.95-45.33,426.82-233.08,170.86-187.76,256.79-387.82,191.93-446.84ZM411.57,427.26c-112.32,123.42-233.29,196.25-270.2,162.67-36.9-33.58,24.23-160.86,136.56-284.29,112.32-123.42,233.29-196.26,270.19-162.68,36.91,33.58-24.23,160.87-136.55,284.3Z"/>
  <path class="cls-2" d="M696.42,665.83c59.03-64.86-45.34-255.95-233.09-426.82C275.58,68.16,75.51-17.78,16.5,47.09c-59.03,64.86,45.33,255.95,233.08,426.82,187.76,170.86,387.82,256.79,446.84,191.93ZM285.66,411.57c-123.42-112.32-196.25-233.29-162.67-270.2,33.58-36.9,160.86,24.23,284.29,136.56,123.42,112.32,196.26,233.29,162.68,270.19-33.58,36.91-160.87-24.23-284.3-136.55Z"/>
  <circle class="cls-1" cx="356.46" cy="356.46" r="41.57"/>
</svg>