<?xml version="1.0" encoding="UTF-8"?>
<svg id="Camada_1" data-name="Camada 1" xmlns="http://www.w3.org/2000/svg" viewBox="0 0 687.48 658.51">
  <defs>
    <style>
      .cls-1 {
        fill: #0a0a3a;
      }

      .cls-2 {
        fill: #6578c4;
      }
    </style>
  </defs>
  <path class="cls-2" d="M524.25,446.34l-2.43-1.95c19.13-28.41,33.42-60.76,41.44-96.17C598.07,194.64,501.79,41.93,348.22,7.12,194.64-27.7,41.93,68.58,7.11,222.15c-34.8,153.58,61.48,306.29,215.05,341.11,81.11,18.38,161.97.2,225.37-43.67.33-.23.66-.46.98-.69l2.1,1.69,171.74,137.93,65.13-81.09-163.23-131.08ZM240.1,484.09c-109.86-24.9-178.72-134.14-153.83-244,24.9-109.85,134.14-178.72,243.99-153.81,109.85,24.9,178.72,134.14,153.83,243.98-5.29,23.35-14.4,44.86-26.53,64-19.23,30.41-46.07,54.88-77.27,71.34-41.53,21.92-90.8,29.69-140.2,18.5Z"/>
  <circle class="cls-1" cx="285.18" cy="285.19" r="62.76"/>
</svg>